<?xml version="1.0" standalone="no"?>
<!DOCTYPE svg PUBLIC "-//W3C//DTD SVG 20010904//EN"
 "http://www.w3.org/TR/2001/REC-SVG-20010904/DTD/svg10.dtd">
<svg version="1.0" xmlns="http://www.w3.org/2000/svg"
 width="1271.000000pt" height="1280.000000pt" viewBox="0 0 1271.000000 1280.000000"
 preserveAspectRatio="xMidYMid meet">
<metadata>
Created by potrace 1.15, written by Peter Selinger 2001-2017
</metadata>
<g transform="translate(0.000000,1280.000000) scale(0.100000,-0.100000)"
fill="#03a9f4" stroke="none">
<path d="M2183 11078 c13 -322 76 -520 250 -784 125 -191 233 -282 417 -353
139 -54 222 -66 455 -65 216 0 295 9 470 54 43 11 80 20 82 20 10 0 -11 -115
-152 -820 -85 -426 -299 -1502 -475 -2390 -463 -2330 -524 -2635 -590 -2930
-119 -534 -193 -897 -247 -1215 -19 -117 -27 -196 -27 -295 0 -151 12 -197 76
-287 19 -26 43 -65 53 -87 29 -56 113 -129 179 -154 191 -73 607 -38 819 69
43 23 46 36 13 87 -67 101 -77 223 -32 377 104 352 445 1049 1018 2078 462
830 764 1301 1087 1692 325 393 640 640 891 699 75 18 188 20 242 6 52 -15
127 -68 164 -116 41 -55 98 -230 129 -400 49 -267 56 -383 65 -1134 5 -388 13
-779 19 -870 42 -623 126 -1047 271 -1355 25 -55 86 -163 135 -240 214 -336
458 -484 830 -502 430 -21 940 272 1570 902 750 750 1449 1729 2054 2880 66
127 120 235 118 240 -2 6 -24 21 -50 35 -51 27 -55 36 -32 79 l14 28 -227 126
-227 126 -30 -50 c-858 -1431 -1906 -2734 -2522 -3136 -256 -167 -432 -185
-556 -58 -51 52 -73 104 -112 258 -78 311 -93 500 -105 1337 -11 768 -21 1050
-50 1299 -34 298 -97 583 -170 766 -37 95 -146 304 -204 395 -141 218 -336
361 -582 427 -92 25 -114 27 -314 27 -190 1 -227 -2 -319 -22 -305 -69 -595
-216 -891 -452 -133 -107 -405 -379 -536 -535 -389 -467 -763 -1063 -1138
-1813 -42 -83 -78 -152 -79 -152 -2 0 97 404 220 898 l223 897 435 2190 c239
1205 435 2198 435 2208 0 21 -7 21 -55 1 -20 -8 -39 -13 -42 -10 -3 2 2 39 11
81 9 43 16 79 16 81 0 11 -35 0 -136 -40 -704 -283 -1548 -397 -2109 -285
-217 44 -455 142 -644 266 -52 35 -99 63 -104 63 -6 0 -8 -55 -4 -142z"/>
</g>
</svg>
